<?xml version="1.0" standalone="no"?>
<!DOCTYPE svg PUBLIC "-//W3C//DTD SVG 20010904//EN"
 "http://www.w3.org/TR/2001/REC-SVG-20010904/DTD/svg10.dtd">
<svg version="1.0" xmlns="http://www.w3.org/2000/svg"
 width="512.000000pt" height="512.000000pt" viewBox="0 0 512.000000 512.000000"
 preserveAspectRatio="xMidYMid meet">

<g transform="translate(0.000000,512.000000) scale(0.100000,-0.100000)"
fill="#000000" stroke="none">
<path d="M773 5005 c-285 -52 -505 -250 -595 -535 l-23 -75 0 -1835 0 -1835
23 -75 c75 -237 249 -424 467 -500 143 -51 111 -50 1910 -50 1824 0 1778 -1
1925 55 227 87 403 288 460 527 19 81 20 117 20 1878 0 1761 -1 1797 -20 1878
-52 215 -198 400 -393 496 -177 88 0 80 -1962 82 -1403 2 -1754 0 -1812 -11z
m2107 -1201 c3 -159 1 -297 -3 -306 -7 -17 -45 -18 -597 -18 -325 0 -591 -1
-592 -2 -2 -2 -5 -280 -8 -618 l-5 -615 -310 0 -310 0 -3 914 c-2 709 1 917
10 929 11 12 128 14 913 10 l900 -4 5 -290z m1223 279 c4 -2 7 -134 7 -292 0
-232 -3 -291 -14 -300 -9 -8 -101 -11 -317 -9 l-304 3 -3 294 c-2 218 1 297
10 308 10 13 55 14 312 8 166 -4 304 -9 309 -12z m-2 -1229 c10 -6 13 -1802 3
-1828 -6 -14 -95 -16 -904 -16 -494 0 -905 3 -914 6 -14 5 -16 42 -16 310 l0
304 598 2 597 3 3 609 c1 346 6 612 11 615 12 8 610 3 622 -5z m-2423 -1531
l-3 -308 -299 -3 c-212 -2 -303 1 -312 9 -11 9 -14 68 -14 304 0 160 3 295 7
298 3 4 145 7 315 7 l308 0 -2 -307z"/>
</g>
</svg>
